<svg t="1571754442147" class="icon" viewBox="0 0 1024 1024" version="1.1" xmlns="http://www.w3.org/2000/svg" p-id="6526" width="64" height="64"><path d="M0 0m102.4 0l819.2 0q102.4 0 102.4 102.4l0 819.2q0 102.4-102.4 102.4l-819.2 0q-102.4 0-102.4-102.4l0-819.2q0-102.4 102.4-102.4Z" fill="#FFBE00" p-id="6527" data-spm-anchor-id="a313x.7781069.0.i3" class="selected"></path><path d="M658.2784 512a20.992 20.992 0 0 0-5.376-15.1552L470.3232 298.4448a17.408 17.408 0 0 0-26.112 0c-7.168 7.8336-7.168 20.48 0 28.3136L614.7584 512l-170.496 185.2416c-7.168 7.7824-7.168 20.48 0 28.3136a17.408 17.408 0 0 0 26.112 0l182.5792-198.4a20.992 20.992 0 0 0 5.376-15.1552z" fill="#FFFFFF" p-id="6528"></path></svg>