<svg t="1571754592565" class="icon" viewBox="0 0 1024 1024" version="1.1" xmlns="http://www.w3.org/2000/svg" p-id="14036" width="64" height="64"><path d="M0 0m102.4 0l819.2 0q102.4 0 102.4 102.4l0 819.2q0 102.4-102.4 102.4l-819.2 0q-102.4 0-102.4-102.4l0-819.2q0-102.4 102.4-102.4Z" fill="#FFBE00" p-id="14037" data-spm-anchor-id="a313x.7781069.0.i6" class="selected"></path><path d="M365.7216 512a20.992 20.992 0 0 1 5.376-15.1552l182.5792-198.4a17.408 17.408 0 0 1 26.112 0c7.168 7.8336 7.168 20.48 0 28.3136L409.2416 512l170.496 185.2416c7.168 7.7824 7.168 20.48 0 28.3136a17.408 17.408 0 0 1-26.112 0l-182.5792-198.4A20.992 20.992 0 0 1 365.7216 512z" fill="#ffffff" p-id="14038"></path></svg>