<?xml version="1.0" standalone="no"?><!DOCTYPE svg PUBLIC "-//W3C//DTD SVG 1.1//EN" "http://www.w3.org/Graphics/SVG/1.1/DTD/svg11.dtd"><svg t="1530408746787" class="icon" style="" viewBox="0 0 1024 1024" version="1.1" xmlns="http://www.w3.org/2000/svg" p-id="11320" xmlns:xlink="http://www.w3.org/1999/xlink" width="48" height="48"><defs><style type="text/css"></style></defs><path d="M918.235 511.33c0-54.873-10.754-108.121-31.963-158.263-20.479-48.417-49.789-91.893-87.119-129.222-37.329-37.329-80.806-66.64-129.223-87.119-50.141-21.21-103.389-31.963-158.262-31.963s-108.119 10.753-158.262 31.963c-48.418 20.479-91.893 49.789-129.222 87.119-37.329 37.329-66.641 80.806-87.12 129.222-21.209 50.142-31.962 103.389-31.962 158.263 0 54.873 10.753 108.119 31.962 158.262 20.479 48.418 49.789 91.893 87.12 129.222 37.329 37.329 80.806 66.641 129.222 87.12 50.142 21.209 103.389 31.962 158.262 31.962s108.121-10.753 158.262-31.962c48.418-20.479 91.893-49.789 129.223-87.12 37.329-37.329 66.64-80.806 87.119-129.222 21.209-50.141 31.963-103.389 31.963-158.262zM859.98 511.33c0 192.059-156.252 348.31-348.311 348.31s-348.311-156.252-348.311-348.31c0-192.059 156.252-348.311 348.311-348.311s348.311 156.252 348.311 348.311z" p-id="11321" fill="#ffffff"></path><path d="M491.073 744.567l-178.498-178.498c-11.328-11.328-11.328-29.863 0-41.193 11.327-11.327 29.863-11.327 41.193 0l128.156 128.157v-354.31c0-16.020 13.107-29.127 29.127-29.127s29.127 13.107 29.127 29.127v355.548l129.395-129.395c11.328-11.327 29.863-11.327 41.193 0 11.328 11.328 11.328 29.863 0 41.193l-178.498 178.499c-11.328 11.328-29.866 11.328-41.193 0z" p-id="11322" fill="#ffffff"></path></svg>